<svg xmlns="http://www.w3.org/2000/svg" viewBox="0 0 96 96" role="img" aria-labelledby="title desc">
  <title id="title">Motor kurir navigasi</title>
  <desc id="desc">Ikon motor biru premium untuk navigasi kurir</desc>
  <defs>
    <linearGradient id="halo" x1="0" y1="0" x2="0" y2="1">
      <stop offset="0" stop-color="#DBEAFE" stop-opacity=".96"/>
      <stop offset="1" stop-color="#93C5FD" stop-opacity=".12"/>
    </linearGradient>
    <linearGradient id="blue" x1="0" y1="0" x2="1" y2="1">
      <stop offset="0" stop-color="#60A5FA"/>
      <stop offset=".55" stop-color="#2563EB"/>
      <stop offset="1" stop-color="#1D4ED8"/>
    </linearGradient>
    <filter id="shadow" x="-35%" y="-35%" width="170%" height="190%">
      <feDropShadow dx="0" dy="5" stdDeviation="4" flood-color="#0F172A" flood-opacity=".28"/>
    </filter>
  </defs>
  <ellipse cx="48" cy="49" rx="39" ry="39" fill="url(#halo)"/>
  <g filter="url(#shadow)">
    <ellipse cx="48" cy="82" rx="22" ry="5" fill="#0F172A" opacity=".2"/>
    <circle cx="31" cy="70" r="11" fill="#111827"/>
    <circle cx="31" cy="70" r="5" fill="#E2E8F0"/>
    <circle cx="65" cy="70" r="11" fill="#111827"/>
    <circle cx="65" cy="70" r="5" fill="#E2E8F0"/>
    <path d="M31 68 40 47h18l9 21H55l-8-10-8 10Z" fill="url(#blue)" stroke="#1E40AF" stroke-width="2.5" stroke-linejoin="round"/>
    <path d="M42 47c2-9 7-15 13-15 5 0 9 4 11 10l-5 7Z" fill="#172554" stroke="#1E3A8A" stroke-width="2"/>
    <path d="M47 33c2-5 6-8 11-8 5 0 9 3 11 8l-4 4H50Z" fill="#F8FAFC" stroke="#2563EB" stroke-width="2.5"/>
    <path d="M58 25c5 0 9 3 11 8" fill="none" stroke="#93C5FD" stroke-width="2" stroke-linecap="round"/>
    <path d="M65 49 76 39" fill="none" stroke="#1E293B" stroke-width="3.5" stroke-linecap="round"/>
    <path d="m73 39 10 2" fill="none" stroke="#1E293B" stroke-width="3.5" stroke-linecap="round"/>
    <rect x="40" y="45" width="20" height="9" rx="3" fill="#EFF6FF" stroke="#2563EB" stroke-width="2.5"/>
    <circle cx="69" cy="56" r="3.5" fill="#FDE68A"/>
  </g>
</svg>
